<svg width="23" height="23" viewBox="0 0 23 23" fill="none" xmlns="http://www.w3.org/2000/svg">
<path d="M9.18834 13.7825H5.51299C4.53823 13.7825 3.60339 14.1698 2.91413 14.859C2.22487 15.5483 1.83765 16.4831 1.83765 17.4579V19.2956" stroke="#364153" stroke-width="1.83767" stroke-linecap="round" stroke-linejoin="round"/>
<path d="M13.1439 15.1884L13.992 14.8374" stroke="#364153" stroke-width="1.83767" stroke-linecap="round" stroke-linejoin="round"/>
<path d="M13.992 12.7277L13.1439 12.3758" stroke="#364153" stroke-width="1.83767" stroke-linecap="round" stroke-linejoin="round"/>
<path d="M15.4841 11.2355L15.1322 10.3874" stroke="#364153" stroke-width="1.83767" stroke-linecap="round" stroke-linejoin="round"/>
<path d="M15.4841 16.3296L15.1322 17.1786" stroke="#364153" stroke-width="1.83767" stroke-linecap="round" stroke-linejoin="round"/>
<path d="M17.5939 11.2355L17.9458 10.3874" stroke="#364153" stroke-width="1.83767" stroke-linecap="round" stroke-linejoin="round"/>
<path d="M17.9449 17.1786L17.5939 16.3296" stroke="#364153" stroke-width="1.83767" stroke-linecap="round" stroke-linejoin="round"/>
<path d="M19.0862 12.7277L19.9352 12.3758" stroke="#364153" stroke-width="1.83767" stroke-linecap="round" stroke-linejoin="round"/>
<path d="M19.0862 14.8374L19.9352 15.1893" stroke="#364153" stroke-width="1.83767" stroke-linecap="round" stroke-linejoin="round"/>
<path d="M16.539 16.539C18.0614 16.539 19.2955 15.3049 19.2955 13.7825C19.2955 12.2602 18.0614 11.026 16.539 11.026C15.0166 11.026 13.7825 12.2602 13.7825 13.7825C13.7825 15.3049 15.0166 16.539 16.539 16.539Z" stroke="#364153" stroke-width="1.83767" stroke-linecap="round" stroke-linejoin="round"/>
<path d="M8.26946 10.1072C10.2993 10.1072 11.9448 8.46169 11.9448 6.43185C11.9448 4.40202 10.2993 2.75651 8.26946 2.75651C6.23962 2.75651 4.59412 4.40202 4.59412 6.43185C4.59412 8.46169 6.23962 10.1072 8.26946 10.1072Z" stroke="#364153" stroke-width="1.83767" stroke-linecap="round" stroke-linejoin="round"/>
</svg>
