<svg width="23" height="23" viewBox="0 0 23 23" fill="none" xmlns="http://www.w3.org/2000/svg">
<g clip-path="url(#clip0_79_474)">
<path d="M13.7826 1.83768H5.51309C5.02571 1.83768 4.55829 2.03129 4.21366 2.37592C3.86903 2.72055 3.67542 3.18797 3.67542 3.67535V18.3767C3.67542 18.8641 3.86903 19.3315 4.21366 19.6762C4.55829 20.0208 5.02571 20.2144 5.51309 20.2144H16.5391C17.0265 20.2144 17.4939 20.0208 17.8386 19.6762C18.1832 19.3315 18.3768 18.8641 18.3768 18.3767V6.43186L13.7826 1.83768Z" stroke="#364153" stroke-width="1.83767" stroke-linecap="round" stroke-linejoin="round"/>
<path d="M12.8636 1.83768V5.51302C12.8636 6.0004 13.0573 6.46782 13.4019 6.81245C13.7465 7.15708 14.2139 7.35069 14.7013 7.35069H18.3767" stroke="#364153" stroke-width="1.83767" stroke-linecap="round" stroke-linejoin="round"/>
<path d="M9.18826 8.26953H7.35059" stroke="#364153" stroke-width="1.83767" stroke-linecap="round" stroke-linejoin="round"/>
<path d="M14.7013 11.9449H7.35059" stroke="#364153" stroke-width="1.83767" stroke-linecap="round" stroke-linejoin="round"/>
<path d="M14.7013 15.6202H7.35059" stroke="#364153" stroke-width="1.83767" stroke-linecap="round" stroke-linejoin="round"/>
</g>
<defs>
<clipPath id="clip0_79_474">
<rect width="22.0521" height="22.0521" fill="white"/>
</clipPath>
</defs>
</svg>
