<svg width="23" height="23" viewBox="0 0 23 23" fill="none" xmlns="http://www.w3.org/2000/svg">
<g opacity="0.744146">
<path d="M8.26949 2.7565H3.67531C3.16785 2.7565 2.75647 3.16788 2.75647 3.67534V10.1072C2.75647 10.6147 3.16785 11.026 3.67531 11.026H8.26949C8.77695 11.026 9.18832 10.6147 9.18832 10.1072V3.67534C9.18832 3.16788 8.77695 2.7565 8.26949 2.7565Z" stroke="white" stroke-width="1.83767" stroke-linecap="round" stroke-linejoin="round"/>
<path d="M18.3767 2.7565H13.7825C13.275 2.7565 12.8636 3.16788 12.8636 3.67534V6.43185C12.8636 6.93931 13.275 7.35068 13.7825 7.35068H18.3767C18.8841 7.35068 19.2955 6.93931 19.2955 6.43185V3.67534C19.2955 3.16788 18.8841 2.7565 18.3767 2.7565Z" stroke="white" stroke-width="1.83767" stroke-linecap="round" stroke-linejoin="round"/>
<path d="M18.3767 11.026H13.7825C13.275 11.026 12.8636 11.4374 12.8636 11.9449V18.3767C12.8636 18.8842 13.275 19.2956 13.7825 19.2956H18.3767C18.8841 19.2956 19.2955 18.8842 19.2955 18.3767V11.9449C19.2955 11.4374 18.8841 11.026 18.3767 11.026Z" stroke="white" stroke-width="1.83767" stroke-linecap="round" stroke-linejoin="round"/>
<path d="M8.26949 14.7014H3.67531C3.16785 14.7014 2.75647 15.1128 2.75647 15.6202V18.3767C2.75647 18.8842 3.16785 19.2956 3.67531 19.2956H8.26949C8.77695 19.2956 9.18832 18.8842 9.18832 18.3767V15.6202C9.18832 15.1128 8.77695 14.7014 8.26949 14.7014Z" stroke="white" stroke-width="1.83767" stroke-linecap="round" stroke-linejoin="round"/>
</g>
</svg>
