<svg width="23" height="23" viewBox="0 0 23 23" fill="none" xmlns="http://www.w3.org/2000/svg">
<path d="M9.43457 19.2956C9.59587 19.5749 9.82785 19.8069 10.1072 19.9682C10.3866 20.1294 10.7034 20.2143 11.026 20.2143C11.3486 20.2143 11.6654 20.1294 11.9448 19.9682C12.2241 19.8069 12.4561 19.5749 12.6174 19.2956" stroke="#364153" stroke-width="1.83767" stroke-linecap="round" stroke-linejoin="round"/>
<path d="M2.99714 14.0821C2.87711 14.2137 2.7979 14.3773 2.76914 14.553C2.74038 14.7288 2.76332 14.9091 2.83516 15.0721C2.907 15.235 3.02465 15.3736 3.1738 15.4709C3.32294 15.5682 3.49716 15.6201 3.67524 15.6202H18.3766C18.5547 15.6203 18.7289 15.5686 18.8782 15.4715C19.0274 15.3743 19.1452 15.2359 19.2173 15.0731C19.2893 14.9102 19.3124 14.73 19.2839 14.5542C19.2554 14.3784 19.1764 14.2147 19.0566 14.083C17.8345 12.8233 16.539 11.4846 16.539 7.35071C16.539 5.88857 15.9581 4.48631 14.9242 3.45242C13.8903 2.41853 12.4881 1.83769 11.0259 1.83769C9.56379 1.83769 8.16153 2.41853 7.12764 3.45242C6.09375 4.48631 5.51292 5.88857 5.51292 7.35071C5.51292 11.4846 4.21644 12.8233 2.99714 14.0821Z" stroke="#364153" stroke-width="1.83767" stroke-linecap="round" stroke-linejoin="round"/>
</svg>
