<svg width="23" height="23" viewBox="0 0 23 23" fill="none" xmlns="http://www.w3.org/2000/svg">
<path d="M8.88609 3.80032C8.93671 3.26771 9.1841 2.7731 9.5799 2.41313C9.97571 2.05317 10.4915 1.8537 11.0265 1.8537C11.5615 1.8537 12.0773 2.05317 12.4731 2.41313C12.8689 2.7731 13.1163 3.26771 13.1669 3.80032C13.1974 4.14438 13.3102 4.47605 13.496 4.76725C13.6818 5.05845 13.935 5.3006 14.2341 5.47322C14.5333 5.64584 14.8697 5.74384 15.2148 5.75893C15.5598 5.77402 15.9035 5.70574 16.2166 5.55989C16.7027 5.33917 17.2536 5.30723 17.762 5.47029C18.2705 5.63336 18.7 5.97975 18.9671 6.44207C19.2342 6.90439 19.3197 7.44954 19.207 7.97144C19.0944 8.49334 18.7915 8.95464 18.3575 9.26556C18.0748 9.46389 17.8441 9.72737 17.6848 10.0337C17.5255 10.3401 17.4423 10.6803 17.4423 11.0256C17.4423 11.3709 17.5255 11.7111 17.6848 12.0174C17.8441 12.3238 18.0748 12.5873 18.3575 12.7856C18.7915 13.0965 19.0944 13.5578 19.207 14.0797C19.3197 14.6016 19.2342 15.1468 18.9671 15.6091C18.7 16.0714 18.2705 16.4178 17.762 16.5809C17.2536 16.7439 16.7027 16.712 16.2166 16.4913C15.9035 16.3454 15.5598 16.2772 15.2148 16.2922C14.8697 16.3073 14.5333 16.4053 14.2341 16.5779C13.935 16.7506 13.6818 16.9927 13.496 17.2839C13.3102 17.5751 13.1974 17.9068 13.1669 18.2509C13.1163 18.7835 12.8689 19.2781 12.4731 19.638C12.0773 19.998 11.5615 20.1975 11.0265 20.1975C10.4915 20.1975 9.97571 19.998 9.5799 19.638C9.1841 19.2781 8.93671 18.7835 8.88609 18.2509C8.85571 17.9067 8.74284 17.5749 8.55702 17.2836C8.3712 16.9923 8.11792 16.75 7.81861 16.5774C7.51931 16.4048 7.18281 16.3068 6.83762 16.2918C6.49242 16.2768 6.14869 16.3452 5.83555 16.4913C5.34939 16.712 4.79849 16.7439 4.29007 16.5809C3.78165 16.4178 3.3521 16.0714 3.085 15.6091C2.8179 15.1468 2.73238 14.6016 2.84507 14.0797C2.95776 13.5578 3.26061 13.0965 3.69466 12.7856C3.97732 12.5873 4.20805 12.3238 4.36733 12.0174C4.52662 11.7111 4.60978 11.3709 4.60978 11.0256C4.60978 10.6803 4.52662 10.3401 4.36733 10.0337C4.20805 9.72737 3.97732 9.46389 3.69466 9.26556C3.26122 8.95448 2.95891 8.49336 2.84649 7.97182C2.73407 7.45028 2.81957 6.90556 3.08638 6.44355C3.35319 5.98153 3.78224 5.63522 4.29015 5.4719C4.79806 5.30859 5.34855 5.33995 5.83463 5.55989C6.14773 5.70574 6.49137 5.77402 6.83644 5.75893C7.18152 5.74384 7.51788 5.64584 7.81706 5.47322C8.11623 5.3006 8.36942 5.05845 8.55518 4.76725C8.74095 4.47605 8.85382 4.14438 8.88425 3.80032" stroke="#364153" stroke-width="1.83767" stroke-linecap="round" stroke-linejoin="round"/>
<path d="M11.0262 13.7825C12.5485 13.7825 13.7827 12.5484 13.7827 11.026C13.7827 9.50363 12.5485 8.2695 11.0262 8.2695C9.50378 8.2695 8.26965 9.50363 8.26965 11.026C8.26965 12.5484 9.50378 13.7825 11.0262 13.7825Z" stroke="#364153" stroke-width="1.83767" stroke-linecap="round" stroke-linejoin="round"/>
</svg>
