<svg width="23" height="23" viewBox="0 0 23 23" fill="none" xmlns="http://www.w3.org/2000/svg">
<path d="M14.7014 19.2956V17.4579C14.7014 16.4831 14.3141 15.5483 13.6249 14.859C12.9356 14.1698 12.0008 13.7825 11.026 13.7825H5.51299C4.53823 13.7825 3.60339 14.1698 2.91413 14.859C2.22487 15.5483 1.83765 16.4831 1.83765 17.4579V19.2956" stroke="#364153" stroke-width="1.83767" stroke-linecap="round" stroke-linejoin="round"/>
<path d="M14.7013 2.87411C15.4894 3.07844 16.1874 3.53868 16.6857 4.1826C17.184 4.82651 17.4543 5.61766 17.4543 6.43185C17.4543 7.24604 17.184 8.03718 16.6857 8.6811C16.1874 9.32502 15.4894 9.78526 14.7013 9.98958" stroke="#364153" stroke-width="1.83767" stroke-linecap="round" stroke-linejoin="round"/>
<path d="M20.2144 19.2956V17.4579C20.2138 16.6436 19.9427 15.8525 19.4438 15.2089C18.9449 14.5653 18.2464 14.1056 17.4579 13.902" stroke="#364153" stroke-width="1.83767" stroke-linecap="round" stroke-linejoin="round"/>
<path d="M8.26946 10.1072C10.2993 10.1072 11.9448 8.46169 11.9448 6.43185C11.9448 4.40202 10.2993 2.75651 8.26946 2.75651C6.23962 2.75651 4.59412 4.40202 4.59412 6.43185C4.59412 8.46169 6.23962 10.1072 8.26946 10.1072Z" stroke="#364153" stroke-width="1.83767" stroke-linecap="round" stroke-linejoin="round"/>
</svg>
