<svg width="19" height="19" viewBox="0 0 19 19" fill="none" xmlns="http://www.w3.org/2000/svg">
<path d="M10.6791 2.67407C10.9544 2.67407 11.2246 2.74853 11.461 2.88956C11.6974 3.03059 11.8912 3.23295 12.022 3.47518L12.3928 4.16185C12.5235 4.40409 12.7174 4.60644 12.9538 4.74747C13.1902 4.88851 13.4603 4.96297 13.7356 4.96296H15.2592C15.6639 4.96296 16.052 5.12373 16.3382 5.40989C16.6244 5.69606 16.7851 6.08419 16.7851 6.48889V13.3556C16.7851 13.7603 16.6244 14.1484 16.3382 14.4345C16.052 14.7207 15.6639 14.8815 15.2592 14.8815H3.0518C2.6471 14.8815 2.25898 14.7207 1.97281 14.4345C1.68665 14.1484 1.52588 13.7603 1.52588 13.3556V6.48889C1.52588 6.08419 1.68665 5.69606 1.97281 5.40989C2.25898 5.12373 2.6471 4.96296 3.0518 4.96296H4.57544C4.85043 4.96298 5.12031 4.88868 5.35655 4.74793C5.59279 4.60718 5.7866 4.40521 5.91749 4.16338L6.29058 3.47366C6.42148 3.23182 6.61529 3.02985 6.85153 2.8891C7.08777 2.74835 7.35765 2.67406 7.63263 2.67407H10.6791Z" stroke="#0A0A0A" stroke-width="1.52593" stroke-linecap="round" stroke-linejoin="round"/>
<path d="M9.15553 11.8296C10.4196 11.8296 11.4444 10.8048 11.4444 9.54072C11.4444 8.2766 10.4196 7.25183 9.15553 7.25183C7.89141 7.25183 6.86664 8.2766 6.86664 9.54072C6.86664 10.8048 7.89141 11.8296 9.15553 11.8296Z" stroke="#0A0A0A" stroke-width="1.52593" stroke-linecap="round" stroke-linejoin="round"/>
</svg>
