<svg width="15" height="15" viewBox="0 0 15 15" fill="none" xmlns="http://www.w3.org/2000/svg">
<path d="M3.6853 13.5123V2.45679C3.6853 2.131 3.81472 1.81855 4.04509 1.58818C4.27546 1.35781 4.58791 1.22839 4.91369 1.22839H9.82726C10.1531 1.22839 10.4655 1.35781 10.6959 1.58818C10.9262 1.81855 11.0557 2.131 11.0557 2.45679V13.5123H3.6853Z" stroke="#FFD85B" stroke-width="1.22839" stroke-linecap="round" stroke-linejoin="round"/>
<path d="M3.68506 7.37035H2.45666C2.13087 7.37035 1.81843 7.49977 1.58806 7.73013C1.35769 7.9605 1.22827 8.27295 1.22827 8.59874V12.2839C1.22827 12.6097 1.35769 12.9222 1.58806 13.1525C1.81843 13.3829 2.13087 13.5123 2.45666 13.5123H3.68506" stroke="#FFD85B" stroke-width="1.22839" stroke-linecap="round" stroke-linejoin="round"/>
<path d="M11.0554 5.52776H12.2838C12.6096 5.52776 12.922 5.65718 13.1524 5.88754C13.3828 6.11791 13.5122 6.43036 13.5122 6.75615V12.2839C13.5122 12.6097 13.3828 12.9221 13.1524 13.1525C12.922 13.3829 12.6096 13.5123 12.2838 13.5123H11.0554" stroke="#FFD85B" stroke-width="1.22839" stroke-linecap="round" stroke-linejoin="round"/>
<path d="M6.14185 3.68518H8.59863" stroke="#FFD85B" stroke-width="1.22839" stroke-linecap="round" stroke-linejoin="round"/>
<path d="M6.14185 6.14195H8.59863" stroke="#FFD85B" stroke-width="1.22839" stroke-linecap="round" stroke-linejoin="round"/>
<path d="M6.14185 8.59874H8.59863" stroke="#FFD85B" stroke-width="1.22839" stroke-linecap="round" stroke-linejoin="round"/>
<path d="M6.14185 11.0555H8.59863" stroke="#FFD85B" stroke-width="1.22839" stroke-linecap="round" stroke-linejoin="round"/>
</svg>
