<svg width="28" height="28" viewBox="0 0 28 28" fill="none" xmlns="http://www.w3.org/2000/svg">
<path d="M11.4697 10.3226H16.0584" stroke="#F39C12" stroke-width="2.86739" stroke-linecap="round" stroke-linejoin="round"/>
<path d="M13.7632 8.02872V13.7635" stroke="#F39C12" stroke-width="2.86739" stroke-linecap="round" stroke-linejoin="round"/>
<path d="M16.0575 24.0861V20.6452C16.0575 20.0368 15.8159 19.4534 15.3857 19.0232C14.9555 18.593 14.372 18.3513 13.7636 18.3513C13.1553 18.3513 12.5718 18.593 12.1416 19.0232C11.7114 19.4534 11.4697 20.0368 11.4697 20.6452V24.0861" stroke="#F39C12" stroke-width="2.86739" stroke-linecap="round" stroke-linejoin="round"/>
<path d="M20.6452 10.3226L24.6825 12.7851C24.8506 12.8874 24.9895 13.0313 25.0859 13.2028C25.1823 13.3744 25.233 13.5678 25.233 13.7646V21.7922C25.233 22.4005 24.9914 22.984 24.5612 23.4142C24.131 23.8444 23.5475 24.0861 22.9391 24.0861H4.58785C3.97947 24.0861 3.39601 23.8444 2.96582 23.4142C2.53562 22.984 2.29395 22.4005 2.29395 21.7922V13.7646C2.29398 13.5678 2.34464 13.3744 2.44105 13.2028C2.53747 13.0313 2.6764 12.8874 2.84448 12.7851L6.88176 10.3226" stroke="#F39C12" stroke-width="2.86739" stroke-linecap="round" stroke-linejoin="round"/>
<path d="M6.88184 24.086V8.02867C6.88174 7.85637 6.92046 7.68627 6.99512 7.531C7.06977 7.37572 7.17846 7.23926 7.31309 7.13175L13.0479 2.54508C13.2513 2.38266 13.504 2.29429 13.7643 2.29449C14.0247 2.2947 14.2772 2.38348 14.4804 2.54622L20.2152 7.13404C20.3493 7.24142 20.4576 7.37757 20.532 7.53241C20.6065 7.68726 20.6452 7.85685 20.6453 8.02867V24.086" stroke="#F39C12" stroke-width="2.86739" stroke-linecap="round" stroke-linejoin="round"/>
</svg>
