<svg width="38" height="38" viewBox="0 0 38 38" fill="none" xmlns="http://www.w3.org/2000/svg">
<path d="M11.875 15.4375H26.125V17.8125H11.875V15.4375ZM11.875 23.75H21.375V21.375H11.875V23.75ZM11.875 29.6875H17.8125V27.3125H11.875V29.6875ZM8.3125 8.3125H11.875V11.875H26.125V8.3125H29.6875V15.4375H32.0625V8.3125C32.0625 7.68261 31.8123 7.07852 31.3669 6.63312C30.9215 6.18772 30.3174 5.9375 29.6875 5.9375H26.125V4.75C26.125 4.12011 25.8748 3.51602 25.4294 3.07062C24.984 2.62522 24.3799 2.375 23.75 2.375H14.25C13.6201 2.375 13.016 2.62522 12.5706 3.07062C12.1252 3.51602 11.875 4.12011 11.875 4.75V5.9375H8.3125C7.68261 5.9375 7.07852 6.18772 6.63312 6.63312C6.18772 7.07852 5.9375 7.68261 5.9375 8.3125V33.25C5.9375 33.8799 6.18772 34.484 6.63312 34.9294C7.07852 35.3748 7.68261 35.625 8.3125 35.625H14.25V33.25H8.3125V8.3125ZM14.25 4.75H23.75V9.5H14.25V4.75ZM35.5181 34.3615L28.0594 20.6269C27.9857 20.4935 27.8776 20.3822 27.7464 20.3048C27.6151 20.2273 27.4655 20.1865 27.3131 20.1865C27.1607 20.1865 27.0111 20.2273 26.8798 20.3048C26.7485 20.3822 26.6404 20.4935 26.5667 20.6269L19.1057 34.3603C19.0347 34.4904 18.9987 34.6366 19.0013 34.7847C19.0038 34.9329 19.0448 35.0778 19.1203 35.2053C19.1957 35.3328 19.303 35.4386 19.4316 35.5121C19.5601 35.5857 19.7057 35.6246 19.8538 35.625H34.7688C34.917 35.6249 35.0626 35.5863 35.1914 35.5129C35.3201 35.4396 35.4276 35.334 35.5033 35.2066C35.579 35.0792 35.6203 34.9343 35.6231 34.7862C35.6259 34.638 35.5889 34.4917 35.5181 34.3615ZM26.4219 24.9375H28.2031V29.6875H26.4219V24.9375ZM27.3125 33.25C27.1535 33.255 26.9951 33.2281 26.8467 33.1707C26.6983 33.1133 26.5629 33.0267 26.4486 32.916C26.3344 32.8052 26.2435 32.6727 26.1815 32.5262C26.1194 32.3797 26.0875 32.2222 26.0875 32.0631C26.0875 31.904 26.1194 31.7465 26.1815 31.6C26.2435 31.4535 26.3344 31.3209 26.4486 31.2102C26.5629 31.0995 26.6983 31.0129 26.8467 30.9555C26.9951 30.8981 27.1535 30.8712 27.3125 30.8762C27.6208 30.8859 27.9132 31.0153 28.1278 31.2368C28.3424 31.4583 28.4625 31.7547 28.4625 32.0631C28.4625 32.3715 28.3424 32.6679 28.1278 32.8894C27.9132 33.1109 27.6208 33.2402 27.3125 33.25Z" fill="white"/>
</svg>
