<svg width="28" height="28" viewBox="0 0 28 28" fill="none" xmlns="http://www.w3.org/2000/svg">
<g clip-path="url(#clip0_86_7942)">
<path d="M6.65237 12.9606L2.29395 25.233L14.5664 20.8861" stroke="#E91E63" stroke-width="2.86739" stroke-linecap="round" stroke-linejoin="round"/>
<path d="M4.5874 3.44089H4.59907" stroke="#E91E63" stroke-width="2.86739" stroke-linecap="round" stroke-linejoin="round"/>
<path d="M25.2329 9.17563H25.2446" stroke="#E91E63" stroke-width="2.86739" stroke-linecap="round" stroke-linejoin="round"/>
<path d="M17.2041 2.29388H17.2158" stroke="#E91E63" stroke-width="2.86739" stroke-linecap="round" stroke-linejoin="round"/>
<path d="M25.2329 22.9391H25.2446" stroke="#E91E63" stroke-width="2.86739" stroke-linecap="round" stroke-linejoin="round"/>
<path d="M25.2328 2.29388L22.6636 3.1541C21.9323 3.3977 21.3083 3.88774 20.8982 4.54045C20.4882 5.19317 20.3176 5.96803 20.4156 6.7326C20.5303 7.71898 19.7618 8.60214 18.7525 8.60214H18.3166C17.3302 8.60214 16.4815 9.29031 16.298 10.2537L16.0571 11.4695" stroke="#E91E63" stroke-width="2.86739" stroke-linecap="round" stroke-linejoin="round"/>
<path d="M25.2333 14.9104L24.2928 14.5319C23.3064 14.142 22.2053 14.7613 22.0218 15.805C21.8957 16.6079 21.196 17.2043 20.3817 17.2043H19.4985" stroke="#E91E63" stroke-width="2.86739" stroke-linecap="round" stroke-linejoin="round"/>
<path d="M12.6167 2.29388L12.9952 3.23439C13.3851 4.22077 12.7658 5.32185 11.722 5.50536C10.9192 5.62005 10.3228 6.33117 10.3228 7.1455V8.02866" stroke="#E91E63" stroke-width="2.86739" stroke-linecap="round" stroke-linejoin="round"/>
<path d="M12.6166 14.9104C14.8303 17.124 15.8625 19.6932 14.9106 20.6452C13.9586 21.5972 11.3894 20.5649 9.17578 18.3513C6.96215 16.1377 5.92989 13.5685 6.88187 12.6165C7.83384 11.6645 10.403 12.6968 12.6166 14.9104Z" stroke="#E91E63" stroke-width="2.86739" stroke-linecap="round" stroke-linejoin="round"/>
</g>
<defs>
<clipPath id="clip0_86_7942">
<rect width="27.5269" height="27.5269" fill="white"/>
</clipPath>
</defs>
</svg>
