<svg width="28" height="28" viewBox="0 0 28 28" fill="none" xmlns="http://www.w3.org/2000/svg">
<path d="M24.5679 12.5271C24.7732 12.4365 24.9475 12.2877 25.0691 12.099C25.1906 11.9104 25.2542 11.6902 25.2519 11.4658C25.2496 11.2414 25.1815 11.0226 25.056 10.8366C24.9306 10.6505 24.7533 10.5053 24.5461 10.419L14.7156 5.94126C14.4167 5.80494 14.0921 5.7344 13.7636 5.7344C13.4351 5.7344 13.1105 5.80494 12.8116 5.94126L2.98223 10.4144C2.77804 10.5038 2.60433 10.6508 2.48235 10.8374C2.36037 11.024 2.29541 11.2421 2.29541 11.465C2.29541 11.6879 2.36037 11.906 2.48235 12.0926C2.60433 12.2792 2.77804 12.4262 2.98223 12.5156L12.8116 16.9979C13.1105 17.1342 13.4351 17.2048 13.7636 17.2048C14.0921 17.2048 14.4167 17.1342 14.7156 16.9979L24.5679 12.5271Z" stroke="#9B59B6" stroke-width="2.86739" stroke-linecap="round" stroke-linejoin="round"/>
<path d="M25.2329 11.4696V18.3513" stroke="#9B59B6" stroke-width="2.86739" stroke-linecap="round" stroke-linejoin="round"/>
<path d="M6.88184 14.3369V18.3513C6.88184 19.2638 7.60687 20.139 8.89745 20.7843C10.188 21.4296 11.9384 21.7921 13.7636 21.7921C15.5887 21.7921 17.3391 21.4296 18.6297 20.7843C19.9203 20.139 20.6453 19.2638 20.6453 18.3513V14.3369" stroke="#9B59B6" stroke-width="2.86739" stroke-linecap="round" stroke-linejoin="round"/>
</svg>
