<svg width="28" height="28" viewBox="0 0 28 28" fill="none" xmlns="http://www.w3.org/2000/svg">
<g clip-path="url(#clip0_86_7914)">
<path d="M13.7632 8.02871V12.6174" stroke="#E74C3C" stroke-width="2.86739" stroke-linecap="round" stroke-linejoin="round"/>
<path d="M16.0575 24.0861V20.6452C16.0575 20.0368 15.8159 19.4534 15.3857 19.0232C14.9555 18.593 14.372 18.3513 13.7636 18.3513C13.1553 18.3513 12.5718 18.593 12.1416 19.0232C11.7114 19.4534 11.4697 20.0368 11.4697 20.6452V24.0861" stroke="#E74C3C" stroke-width="2.86739" stroke-linecap="round" stroke-linejoin="round"/>
<path d="M16.0584 10.3226H11.4697" stroke="#E74C3C" stroke-width="2.86739" stroke-linecap="round" stroke-linejoin="round"/>
<path d="M20.6452 12.6165H22.9391C23.5475 12.6165 24.131 12.8582 24.5612 13.2883C24.9914 13.7185 25.233 14.302 25.233 14.9104V21.7921C25.233 22.4005 24.9914 22.984 24.5612 23.4142C24.131 23.8443 23.5475 24.086 22.9391 24.086H4.58785C3.97947 24.086 3.39601 23.8443 2.96582 23.4142C2.53562 22.984 2.29395 22.4005 2.29395 21.7921V11.4695C2.29395 10.8611 2.53562 10.2777 2.96582 9.84748C3.39601 9.41729 3.97947 9.17561 4.58785 9.17561H6.88176" stroke="#E74C3C" stroke-width="2.86739" stroke-linecap="round" stroke-linejoin="round"/>
<path d="M20.6453 24.0861V5.73477C20.6453 5.12639 20.4036 4.54293 19.9734 4.11274C19.5432 3.68254 18.9598 3.44086 18.3514 3.44086H9.17575C8.56736 3.44086 7.9839 3.68254 7.55371 4.11274C7.12351 4.54293 6.88184 5.12639 6.88184 5.73477V24.0861" stroke="#E74C3C" stroke-width="2.86739" stroke-linecap="round" stroke-linejoin="round"/>
</g>
<defs>
<clipPath id="clip0_86_7914">
<rect width="27.5269" height="27.5269" fill="white"/>
</clipPath>
</defs>
</svg>
