<svg width="28" height="28" viewBox="0 0 28 28" fill="none" xmlns="http://www.w3.org/2000/svg">
<path d="M17.2045 24.0861V18.3513C17.2045 18.0471 17.0836 17.7554 16.8685 17.5403C16.6535 17.3252 16.3617 17.2043 16.0575 17.2043H11.4697C11.1655 17.2043 10.8738 17.3252 10.6587 17.5403C10.4436 17.7554 10.3228 18.0471 10.3228 18.3513V24.0861" stroke="#FFD85B" stroke-width="2.86739" stroke-linecap="round" stroke-linejoin="round"/>
<path d="M20.3861 11.8251C20.147 11.5962 19.8288 11.4685 19.4978 11.4685C19.1668 11.4685 18.8486 11.5962 18.6095 11.8251C18.0761 12.3338 17.3674 12.6176 16.6304 12.6176C15.8934 12.6176 15.1846 12.3338 14.6513 11.8251C14.4123 11.5966 14.0943 11.469 13.7636 11.469C13.4329 11.469 13.1149 11.5966 12.8758 11.8251C12.3425 12.3341 11.6335 12.6182 10.8962 12.6182C10.1589 12.6182 9.44993 12.3341 8.91655 11.8251C8.67745 11.5962 8.35923 11.4685 8.02823 11.4685C7.69724 11.4685 7.37902 11.5962 7.13992 11.8251C6.62476 12.3167 5.9451 12.599 5.23325 12.6171C4.5214 12.6352 3.82827 12.3878 3.28879 11.923C2.74931 11.4583 2.40207 10.8094 2.31466 10.1027C2.22725 9.39597 2.40592 8.68203 2.8159 8.09981L6.12945 3.30095C6.3397 2.99071 6.62275 2.73671 6.95386 2.56116C7.28496 2.38561 7.65404 2.29385 8.02881 2.29392H19.4984C19.872 2.29378 20.2401 2.38492 20.5705 2.55943C20.9009 2.73393 21.1837 2.98652 21.3943 3.29521L24.7147 8.10325C25.1248 8.68593 25.3032 9.40042 25.2153 10.1075C25.1273 10.8145 24.7792 11.4635 24.2389 11.928C23.6986 12.3924 23.0047 12.6391 22.2924 12.6199C21.5802 12.6006 20.9006 12.3169 20.3861 11.824" stroke="#FFD85B" stroke-width="2.86739" stroke-linecap="round" stroke-linejoin="round"/>
<path d="M4.58789 12.5592V21.7921C4.58789 22.4005 4.82957 22.984 5.25976 23.4142C5.68995 23.8444 6.27342 24.086 6.8818 24.086H20.6453C21.2536 24.086 21.8371 23.8444 22.2673 23.4142C22.6975 22.984 22.9392 22.4005 22.9392 21.7921V12.5592" stroke="#FFD85B" stroke-width="2.86739" stroke-linecap="round" stroke-linejoin="round"/>
</svg>
