<svg width="15" height="15" viewBox="0 0 15 15" fill="none" xmlns="http://www.w3.org/2000/svg">
<g clip-path="url(#clip0_80_5249)">
<path d="M9.21301 12.8981V7.98456C9.21301 7.82166 9.1483 7.66544 9.03311 7.55026C8.91793 7.43507 8.76171 7.37036 8.59881 7.37036H6.14203C5.97913 7.37036 5.82291 7.43507 5.70773 7.55026C5.59254 7.66544 5.52783 7.82166 5.52783 7.98456V12.8981" stroke="#3FA564" stroke-width="1.22839" stroke-linecap="round" stroke-linejoin="round"/>
<path d="M1.84277 6.14198C1.84273 5.96329 1.88167 5.78675 1.95688 5.62466C2.03209 5.46257 2.14176 5.31883 2.27824 5.20349L6.57761 1.51831C6.79933 1.33093 7.08024 1.22812 7.37054 1.22812C7.66083 1.22812 7.94175 1.33093 8.16347 1.51831L12.4628 5.20349C12.5993 5.31883 12.709 5.46257 12.7842 5.62466C12.8594 5.78675 12.8983 5.96329 12.8983 6.14198V11.6697C12.8983 11.9955 12.7689 12.308 12.5385 12.5384C12.3081 12.7687 11.9957 12.8981 11.6699 12.8981H3.07117C2.74538 12.8981 2.43293 12.7687 2.20256 12.5384C1.97219 12.308 1.84277 11.9955 1.84277 11.6697V6.14198Z" stroke="#3FA564" stroke-width="1.22839" stroke-linecap="round" stroke-linejoin="round"/>
</g>
<defs>
<clipPath id="clip0_80_5249">
<rect width="14.7407" height="14.7407" fill="white"/>
</clipPath>
</defs>
</svg>
